<svg width="512" height="512" viewBox="0 0 512 512" fill="none" xmlns="http://www.w3.org/2000/svg">
  <rect width="512" height="512" rx="120" fill="#0F1218"/>
  <rect x="68" y="68" width="376" height="376" rx="96" fill="url(#paint0_linear_1_2)"/>
  <path d="M176 188C176 168.118 192.118 152 212 152H300C319.882 152 336 168.118 336 188V204H176V188Z" fill="#EAF6F1" fill-opacity="0.14"/>
  <path d="M160 220H352C352 298.425 308.183 348 256 348C203.817 348 160 298.425 160 220Z" fill="#EAF6F1"/>
  <path d="M196 236H316C312.676 284.514 286.48 316 256 316C225.52 316 199.324 284.514 196 236Z" fill="#0F1218"/>
  <path d="M226 130C226 120.059 234.059 112 244 112H268C277.941 112 286 120.059 286 130V228H226V130Z" fill="#7EE7C1"/>
  <path d="M211 164H301" stroke="#0F1218" stroke-width="18" stroke-linecap="round"/>
  <path d="M224 196H288" stroke="#0F1218" stroke-width="18" stroke-linecap="round"/>
  <path d="M374 178V274C374 297.196 355.196 316 332 316H326" stroke="#EAF6F1" stroke-width="18" stroke-linecap="round"/>
  <defs>
    <linearGradient id="paint0_linear_1_2" x1="105.5" y1="92" x2="389" y2="425" gradientUnits="userSpaceOnUse">
      <stop stop-color="#18212B"/>
      <stop offset="1" stop-color="#10171F"/>
    </linearGradient>
  </defs>
</svg>
